<?xml version="1.0" encoding="UTF-8"?>
<svg xmlns="http://www.w3.org/2000/svg" viewBox="0 0 48 48" width="48" height="48" fill="none" stroke="currentColor" stroke-width="2.5" stroke-linecap="round" stroke-linejoin="round">
  
  <path d="M 10 16 V 12 a 2 2 0 0 1 2 -2 h 4"></path>
  <path d="M 38 16 V 12 a 2 2 0 0 0 -2 -2 h -4"></path>
  <path d="M 10 32 V 36 a 2 2 0 0 0 2 2 h 4"></path>
  <path d="M 38 32 V 36 a 2 2 0 0 1 -2 2 h -4"></path>
  <line x1="14" y1="18" x2="14" y2="30"></line>
  <line x1="20" y1="18" x2="20" y2="30"></line>
  <line x1="26" y1="18" x2="26" y2="30"></line>
  <line x1="32" y1="18" x2="32" y2="30"></line>
</svg>